<?xml version="1.0" encoding="utf-8"?>
<!-- Generator: Adobe Illustrator 24.1.2, SVG Export Plug-In . SVG Version: 6.00 Build 0)  -->
<svg version="1.1" id="レイヤー_1" xmlns="http://www.w3.org/2000/svg" xmlns:xlink="http://www.w3.org/1999/xlink" x="0px"
	 y="0px" viewBox="0 0 180 262" style="enable-background:new 0 0 180 262;" xml:space="preserve">
<style type="text/css">
	.st0{fill:#FFFFFF;}
	.st1{opacity:0.9;}
</style>
<g>
	<path class="st0" d="M161.96,261H17.06l30.9-118.1h83.09l0.13,0.49L161.96,261z M18.74,259.7h141.53l-30.22-115.5H48.97
		L18.74,259.7z"/>
	<polygon class="st0" points="158.39,206.11 142.11,188.07 143.08,187.2 158.41,204.18 169.52,192.24 128.43,145.07 129.41,144.21 
		171.26,192.27 	"/>
	<path class="st0" d="M170.07,212.75c-4.57,0-8.29-3.72-8.29-8.29s3.72-8.29,8.29-8.29s8.29,3.72,8.29,8.29
		S174.64,212.75,170.07,212.75z M170.07,197.47c-3.86,0-6.99,3.14-6.99,6.99s3.14,6.99,6.99,6.99s6.99-3.14,6.99-6.99
		S173.92,197.47,170.07,197.47z"/>
	<polygon class="st0" points="21.61,206.54 8.74,192.71 9.12,192.27 50.59,144.65 51.57,145.5 10.48,192.68 21.59,204.62 
		36.92,187.63 37.89,188.5 	"/>
	<path class="st0" d="M9.93,213.19c-4.57,0-8.29-3.72-8.29-8.29s3.72-8.29,8.29-8.29c4.57,0,8.29,3.72,8.29,8.29
		S14.51,213.19,9.93,213.19z M9.93,197.91c-3.85,0-6.99,3.14-6.99,6.99s3.14,6.99,6.99,6.99c3.86,0,6.99-3.14,6.99-6.99
		S13.79,197.91,9.93,197.91z"/>
	<g>
		<path class="st0" d="M131.42,58.85c0,0,15.72,16.79,18.34,18.09c0,0-7.86,0.82-12.23-1.64l16.37,25.77c0,0-10.04-8.22-11.35-8.66
			c0,0,3.71,11.47,4.15,15.36c0,0-6.99-6.17-9.17-6.17c0,0,11.13,21.1,12.44,26.29c0,0-11.13-11.91-14.19-13.96
			c0,0,8.51,15.69,8.95,20.46c0,0-4.58-6.07-8.08-8.12c0,0,5.02,15.48,5.02,21.54c0,0-5.02-8.39-8.08-12.91l1.53,12.91
			c0,0-3.06-6.82-5.02-9.21c0,0-3.27,19.16-4.58,22.19c0,0-2.62-5.19-4.8-8.22c0,0-7.86,26.83-9.61,29.43c0,0-0.22-16.12-1.96-19.15
			c0,0-6.99,25.31-9.61,28.77c0,0-1.31-18.84-2.18-20.14c0,0-4.37,34.76-6.11,38.23c0,0-6.11-26.8-6.55-33.29
			c0,0-6.55,16.77-6.55,18.5c0,0-6.11-26.93-6.55-30.83c0,0-3.06,17.82-3.49,23.02c0,0-9.61-21.72-8.3-31.24
			c0,0-4.37,9.65-4.8,13.98c0,0-7.42-28.21-6.99-31.24c0,0-1.75,13.56-3.93,18.91c0,0-0.44-19.45,0.87-25.07
			c0,0-1.75,6.99-7.42,12.74c0,0,3.71-22.9,5.89-31.99c0,0-6.77,8.15-9.82,12.67c0,0,3.27-14.4,8.08-23.06c0,0-8.3,2.16-11.35,8.22
			c0,0,3.06-12.98,8.3-17.75c0,0-6.99-0.43-10.92,3.9c0,0,10.92-12.98,13.54-19.48c0,0-7.42,0.43-11.35,3.9
			c0,0,17.47-17.31,18.34-22.07"/>
		<path class="st0" d="M91.02,211.6l-0.4-1.76c-0.22-0.98-4.95-21.76-6.26-30.76c-2.46,6.39-5.56,14.78-5.56,15.82v5.8l-1.28-5.65
			c-0.21-0.91-4.26-18.78-5.9-27.14c-0.92,5.51-2.55,15.59-2.86,19.24l-0.21,2.53l-1.03-2.33c-0.02-0.05-2.44-5.53-4.66-12.1
			c-2.26-6.7-3.53-12.07-3.77-16.05c-1.31,3.17-3.16,8.02-3.43,10.69l-0.36,3.57L54.39,170c-0.59-2.26-4.78-18.25-6.39-26.66
			c-0.71,4.47-1.9,11.01-3.29,14.41l-1.18,2.89l-0.07-3.12c-0.01-0.62-0.27-12.27,0.26-20.01c-1.18,2.42-3,5.39-5.69,8.12
			l-1.43,1.45l0.33-2.01c0.03-0.21,3.11-19.17,5.3-29.35c-2.21,2.73-6,7.46-8.05,10.5l-1.94,2.87l0.77-3.38
			c0.03-0.14,3-13.08,7.38-21.79c-2.47,0.92-7.33,3.19-9.45,7.39l-2.47,4.89l1.26-5.33c0.12-0.5,2.74-11.48,7.38-16.92
			c-2.19,0.14-6.29,0.8-8.89,3.66l-0.98-0.85c0.1-0.12,9.82-11.72,12.99-18.3c-2.16,0.27-7.03,1.12-9.88,3.63l-0.89-0.95
			c4.82-4.78,17.47-17.99,18.16-21.73l1.28,0.23c-0.66,3.62-10.04,13.71-15.2,19.04c3.6-1.38,7.31-1.62,7.53-1.63l1.02-0.06
			l-0.38,0.95c-1.79,4.44-7.27,11.7-10.71,16.05c3.59-1.58,7.32-1.38,7.53-1.36l1.53,0.1l-1.14,1.03
			c-3.37,3.06-5.85,9.78-7.12,13.92c1.3-1.36,2.95-2.58,4.91-3.62c2.49-1.32,4.58-1.87,4.67-1.89l1.47-0.38l-0.74,1.33
			c-3.32,5.98-5.92,14.83-7.18,19.59c3.31-4.44,7.81-9.86,7.86-9.93l1.78-2.15l-0.65,2.71c-1.76,7.32-4.55,23.85-5.53,29.78
			c4.33-5.18,5.78-10.77,5.79-10.84l1.26,0.31c-0.91,3.91-0.96,14.84-0.91,20.84c1.51-5.95,2.62-14.36,2.69-14.88
			c0-0.01,0-0.02,0-0.03l1.29,0.18c0,0.01,0,0.03-0.01,0.05c-0.24,2.1,3.39,17.12,6.27,28.24c1.28-4.7,4.14-11.05,4.29-11.38
			l1.85-4.08l-0.61,4.43c-1.02,7.44,4.89,22.8,7.28,28.6c0.86-6.77,3.11-19.94,3.22-20.58l0.78-4.52l0.51,4.56
			c0.35,3.1,4.41,21.33,5.95,28.17c1.52-4.74,5.04-13.81,5.89-16l1.06-2.71l0.2,2.9c0.35,5.22,4.48,24.02,5.99,30.77
			c1.62-7.12,4.33-27.4,5.38-35.74l0.22-1.72l0.97,1.44c0.78,1.16,1.7,12.36,2.13,18.21c2.37-5.39,6.42-19.16,8.49-26.66l0.41-1.5
			l0.78,1.35c1.37,2.37,1.83,11.61,1.98,16.52c2.26-6.08,6.61-20.54,8.4-26.66l0.37-1.28l0.78,1.08c1.51,2.1,3.2,5.17,4.14,6.93
			c1.45-5.29,4.05-20.46,4.08-20.63l0.24-1.4l0.9,1.1c1.05,1.28,2.37,3.72,3.41,5.79l-1.38-11.65l1.5,2.22
			c2.03,3,4.94,7.73,6.66,10.57c-0.97-6.89-4.72-18.5-4.76-18.63l-0.53-1.63l1.48,0.87c2.19,1.29,4.74,4.03,6.42,6.01
			c-2.08-6.17-8.12-17.34-8.19-17.47l-1.26-2.32l2.19,1.48c2.29,1.54,8.8,8.26,12.2,11.83c-3.05-7.5-11.29-23.14-11.39-23.32
			l-0.5-0.95h1.08c1.81,0,5.95,3.24,8.23,5.15c-0.99-4.71-3.79-13.4-3.82-13.49l-0.39-1.22l1.22,0.4c0.94,0.31,5.31,3.73,8.47,6.26
			l-15.63-24.6l2.26,1.28c2.92,1.65,7.57,1.75,10.09,1.67c-4.55-3.84-15.58-15.59-16.99-17.1l0.95-0.89
			c4.35,4.65,16.09,16.93,18.15,17.95l2.01,1l-2.23,0.23c-0.28,0.03-6.13,0.62-10.61-0.86l17.41,27.4l-3.13-2.56
			c-3.63-2.98-7.68-6.17-9.79-7.68c1.05,3.35,3.3,10.76,3.64,13.81l0.19,1.67l-1.26-1.11c-2.06-1.82-5.4-4.48-7.42-5.54
			c2.53,4.86,10.63,20.54,11.76,25.02l0.62,2.44l-1.72-1.84c-0.09-0.1-7.25-7.75-11.58-11.76c2.5,4.82,7.13,14.15,7.46,17.75
			l0.21,2.27l-1.37-1.82c-0.04-0.05-3.32-4.37-6.36-6.86c1.33,4.32,4.47,14.99,4.47,19.89v2.35l-1.21-2.02
			c-0.04-0.07-3.63-6.05-6.55-10.59l1.7,14.4l-1.74-3.88c-0.03-0.06-2.24-4.97-4.05-7.83c-0.81,4.65-3.24,18.22-4.36,20.8
			l-0.55,1.27l-0.63-1.24c-0.02-0.05-2.05-4.05-3.99-7.02c-1.62,5.49-7.73,25.95-9.3,28.3l-1.16,1.73l-0.03-2.08
			c-0.05-3.69-0.37-12.66-1.27-16.92c-1.74,6.17-6.89,23.96-9.13,26.92l-1.05,1.38l-0.12-1.73c-0.4-5.81-0.95-12.08-1.42-16
			c-1.22,9.36-4.22,31.51-5.65,34.34L91.02,211.6z"/>
	</g>
	<g id="qr_1_">
		<rect x="48.25" y="61.69" width="3.28" height="3.28"/>
		<rect x="51.53" y="61.69" width="3.28" height="3.28"/>
		<rect x="54.81" y="61.69" width="3.28" height="3.28"/>
		<rect x="58.1" y="61.69" width="3.28" height="3.28"/>
		<rect x="61.38" y="61.69" width="3.28" height="3.28"/>
		<rect x="64.66" y="61.69" width="3.28" height="3.28"/>
		<rect x="67.95" y="61.69" width="3.28" height="3.28"/>
		<rect x="84.36" y="61.69" width="3.28" height="3.28"/>
		<rect x="87.65" y="61.69" width="3.28" height="3.28"/>
		<rect x="94.21" y="61.69" width="3.28" height="3.28"/>
		<rect x="107.35" y="61.69" width="3.28" height="3.28"/>
		<rect x="110.63" y="61.69" width="3.28" height="3.28"/>
		<rect x="113.92" y="61.69" width="3.28" height="3.28"/>
		<rect x="117.2" y="61.69" width="3.28" height="3.28"/>
		<rect x="120.48" y="61.69" width="3.28" height="3.28"/>
		<rect x="123.77" y="61.69" width="3.28" height="3.28"/>
		<rect x="127.05" y="61.69" width="3.28" height="3.28"/>
		<rect x="48.25" y="64.97" width="3.28" height="3.28"/>
		<rect x="67.95" y="64.97" width="3.28" height="3.28"/>
		<rect x="77.8" y="64.97" width="3.28" height="3.28"/>
		<rect x="81.08" y="64.97" width="3.28" height="3.28"/>
		<rect x="90.93" y="64.97" width="3.28" height="3.28"/>
		<rect x="94.21" y="64.97" width="3.28" height="3.28"/>
		<rect x="100.78" y="64.97" width="3.28" height="3.28"/>
		<rect x="107.35" y="64.97" width="3.28" height="3.28"/>
		<rect x="127.05" y="64.97" width="3.28" height="3.28"/>
		<rect x="48.25" y="68.25" width="3.28" height="3.28"/>
		<rect x="54.81" y="68.25" width="3.28" height="3.28"/>
		<rect x="58.1" y="68.25" width="3.28" height="3.28"/>
		<rect x="61.38" y="68.25" width="3.28" height="3.28"/>
		<rect x="67.95" y="68.25" width="3.28" height="3.28"/>
		<rect x="87.65" y="68.25" width="3.28" height="3.28"/>
		<rect x="97.5" y="68.25" width="3.28" height="3.28"/>
		<rect x="107.35" y="68.25" width="3.28" height="3.28"/>
		<rect x="113.92" y="68.25" width="3.28" height="3.28"/>
		<rect x="117.2" y="68.25" width="3.28" height="3.28"/>
		<rect x="120.48" y="68.25" width="3.28" height="3.28"/>
		<rect x="127.05" y="68.25" width="3.28" height="3.28"/>
		<rect x="48.25" y="71.54" width="3.28" height="3.28"/>
		<rect x="54.81" y="71.54" width="3.28" height="3.28"/>
		<rect x="58.1" y="71.54" width="3.28" height="3.28"/>
		<rect x="61.38" y="71.54" width="3.28" height="3.28"/>
		<rect x="67.95" y="71.54" width="3.28" height="3.28"/>
		<rect x="74.51" y="71.54" width="3.28" height="3.28"/>
		<rect x="87.65" y="71.54" width="3.28" height="3.28"/>
		<rect x="90.93" y="71.54" width="3.28" height="3.28"/>
		<rect x="94.21" y="71.54" width="3.28" height="3.28"/>
		<rect x="100.78" y="71.54" width="3.28" height="3.28"/>
		<rect x="107.35" y="71.54" width="3.28" height="3.28"/>
		<rect x="113.92" y="71.54" width="3.28" height="3.28"/>
		<rect x="117.2" y="71.54" width="3.28" height="3.28"/>
		<rect x="120.48" y="71.54" width="3.28" height="3.28"/>
		<rect x="127.05" y="71.54" width="3.28" height="3.28"/>
		<rect x="48.25" y="74.82" width="3.28" height="3.28"/>
		<rect x="54.81" y="74.82" width="3.28" height="3.28"/>
		<rect x="58.1" y="74.82" width="3.28" height="3.28"/>
		<rect x="61.38" y="74.82" width="3.28" height="3.28"/>
		<rect x="67.95" y="74.82" width="3.28" height="3.28"/>
		<rect x="74.51" y="74.82" width="3.28" height="3.28"/>
		<rect x="77.8" y="74.82" width="3.28" height="3.28"/>
		<rect x="90.93" y="74.82" width="3.28" height="3.28"/>
		<rect x="100.78" y="74.82" width="3.28" height="3.28"/>
		<rect x="107.35" y="74.82" width="3.28" height="3.28"/>
		<rect x="113.92" y="74.82" width="3.28" height="3.28"/>
		<rect x="117.2" y="74.82" width="3.28" height="3.28"/>
		<rect x="120.48" y="74.82" width="3.28" height="3.28"/>
		<rect x="127.05" y="74.82" width="3.28" height="3.28"/>
		<rect x="48.25" y="78.1" width="3.28" height="3.28"/>
		<rect x="67.95" y="78.1" width="3.28" height="3.28"/>
		<rect x="84.36" y="78.1" width="3.28" height="3.28"/>
		<rect x="87.65" y="78.1" width="3.28" height="3.28"/>
		<rect x="90.93" y="78.1" width="3.28" height="3.28"/>
		<rect x="94.21" y="78.1" width="3.28" height="3.28"/>
		<rect x="100.78" y="78.1" width="3.28" height="3.28"/>
		<rect x="107.35" y="78.1" width="3.28" height="3.28"/>
		<rect x="127.05" y="78.1" width="3.28" height="3.28"/>
		<rect x="48.25" y="81.39" width="3.28" height="3.28"/>
		<rect x="51.53" y="81.39" width="3.28" height="3.28"/>
		<rect x="54.81" y="81.39" width="3.28" height="3.28"/>
		<rect x="58.1" y="81.39" width="3.28" height="3.28"/>
		<rect x="61.38" y="81.39" width="3.28" height="3.28"/>
		<rect x="64.66" y="81.39" width="3.28" height="3.28"/>
		<rect x="67.95" y="81.39" width="3.28" height="3.28"/>
		<rect x="74.51" y="81.39" width="3.28" height="3.28"/>
		<rect x="81.08" y="81.39" width="3.28" height="3.28"/>
		<rect x="87.65" y="81.39" width="3.28" height="3.28"/>
		<rect x="94.21" y="81.39" width="3.28" height="3.28"/>
		<rect x="100.78" y="81.39" width="3.28" height="3.28"/>
		<rect x="107.35" y="81.39" width="3.28" height="3.28"/>
		<rect x="110.63" y="81.39" width="3.28" height="3.28"/>
		<rect x="113.92" y="81.39" width="3.28" height="3.28"/>
		<rect x="117.2" y="81.39" width="3.28" height="3.28"/>
		<rect x="120.48" y="81.39" width="3.28" height="3.28"/>
		<rect x="123.77" y="81.39" width="3.28" height="3.28"/>
		<rect x="127.05" y="81.39" width="3.28" height="3.28"/>
		<rect x="81.08" y="84.67" width="3.28" height="3.28"/>
		<rect x="84.36" y="84.67" width="3.28" height="3.28"/>
		<rect x="100.78" y="84.67" width="3.28" height="3.28"/>
		<rect x="48.25" y="87.95" width="3.28" height="3.28"/>
		<rect x="51.53" y="87.95" width="3.28" height="3.28"/>
		<rect x="64.66" y="87.95" width="3.28" height="3.28"/>
		<rect x="67.95" y="87.95" width="3.28" height="3.28"/>
		<rect x="71.23" y="87.95" width="3.28" height="3.28"/>
		<rect x="77.8" y="87.95" width="3.28" height="3.28"/>
		<rect x="84.36" y="87.95" width="3.28" height="3.28"/>
		<rect x="90.93" y="87.95" width="3.28" height="3.28"/>
		<rect x="94.21" y="87.95" width="3.28" height="3.28"/>
		<rect x="113.92" y="87.95" width="3.28" height="3.28"/>
		<rect x="117.2" y="87.95" width="3.28" height="3.28"/>
		<rect x="48.25" y="91.24" width="3.28" height="3.28"/>
		<rect x="54.81" y="91.24" width="3.28" height="3.28"/>
		<rect x="61.38" y="91.24" width="3.28" height="3.28"/>
		<rect x="74.51" y="91.24" width="3.28" height="3.28"/>
		<rect x="77.8" y="91.24" width="3.28" height="3.28"/>
		<rect x="87.65" y="91.24" width="3.28" height="3.28"/>
		<rect x="90.93" y="91.24" width="3.28" height="3.28"/>
		<rect x="94.21" y="91.24" width="3.28" height="3.28"/>
		<rect x="97.5" y="91.24" width="3.28" height="3.28"/>
		<rect x="110.63" y="91.24" width="3.28" height="3.28"/>
		<rect x="113.92" y="91.24" width="3.28" height="3.28"/>
		<rect x="117.2" y="91.24" width="3.28" height="3.28"/>
		<rect x="120.48" y="91.24" width="3.28" height="3.28"/>
		<rect x="123.77" y="91.24" width="3.28" height="3.28"/>
		<rect x="51.53" y="94.52" width="3.28" height="3.28"/>
		<rect x="58.1" y="94.52" width="3.28" height="3.28"/>
		<rect x="61.38" y="94.52" width="3.28" height="3.28"/>
		<rect x="64.66" y="94.52" width="3.28" height="3.28"/>
		<rect x="67.95" y="94.52" width="3.28" height="3.28"/>
		<rect x="81.08" y="94.52" width="3.28" height="3.28"/>
		<rect x="94.21" y="94.52" width="3.28" height="3.28"/>
		<rect x="97.5" y="94.52" width="3.28" height="3.28"/>
		<rect x="100.78" y="94.52" width="3.28" height="3.28"/>
		<rect x="117.2" y="94.52" width="3.28" height="3.28"/>
		<rect x="123.77" y="94.52" width="3.28" height="3.28"/>
		<rect x="127.05" y="94.52" width="3.28" height="3.28"/>
		<rect x="51.53" y="97.8" width="3.28" height="3.28"/>
		<rect x="54.81" y="97.8" width="3.28" height="3.28"/>
		<rect x="61.38" y="97.8" width="3.28" height="3.28"/>
		<rect x="71.23" y="97.8" width="3.28" height="3.28"/>
		<rect x="74.51" y="97.8" width="3.28" height="3.28"/>
		<rect x="77.8" y="97.8" width="3.28" height="3.28"/>
		<rect x="87.65" y="97.8" width="3.28" height="3.28"/>
		<rect x="94.21" y="97.8" width="3.28" height="3.28"/>
		<rect x="100.78" y="97.8" width="3.28" height="3.28"/>
		<rect x="104.06" y="97.8" width="3.28" height="3.28"/>
		<rect x="107.35" y="97.8" width="3.28" height="3.28"/>
		<rect x="110.63" y="97.8" width="3.28" height="3.28"/>
		<rect x="117.2" y="97.8" width="3.28" height="3.28"/>
		<rect x="127.05" y="97.8" width="3.28" height="3.28"/>
		<rect x="48.25" y="101.09" width="3.28" height="3.28"/>
		<rect x="61.38" y="101.09" width="3.28" height="3.28"/>
		<rect x="64.66" y="101.09" width="3.28" height="3.28"/>
		<rect x="67.95" y="101.09" width="3.28" height="3.28"/>
		<rect x="71.23" y="101.09" width="3.28" height="3.28"/>
		<rect x="77.8" y="101.09" width="3.28" height="3.28"/>
		<rect x="84.36" y="101.09" width="3.28" height="3.28"/>
		<rect x="87.65" y="101.09" width="3.28" height="3.28"/>
		<rect x="97.5" y="101.09" width="3.28" height="3.28"/>
		<rect x="100.78" y="101.09" width="3.28" height="3.28"/>
		<rect x="107.35" y="101.09" width="3.28" height="3.28"/>
		<rect x="110.63" y="101.09" width="3.28" height="3.28"/>
		<rect x="127.05" y="101.09" width="3.28" height="3.28"/>
		<rect x="48.25" y="104.37" width="3.28" height="3.28"/>
		<rect x="54.81" y="104.37" width="3.28" height="3.28"/>
		<rect x="61.38" y="104.37" width="3.28" height="3.28"/>
		<rect x="74.51" y="104.37" width="3.28" height="3.28"/>
		<rect x="77.8" y="104.37" width="3.28" height="3.28"/>
		<rect x="97.5" y="104.37" width="3.28" height="3.28"/>
		<rect x="100.78" y="104.37" width="3.28" height="3.28"/>
		<rect x="104.06" y="104.37" width="3.28" height="3.28"/>
		<rect x="110.63" y="104.37" width="3.28" height="3.28"/>
		<rect x="123.77" y="104.37" width="3.28" height="3.28"/>
		<rect x="48.25" y="107.65" width="3.28" height="3.28"/>
		<rect x="61.38" y="107.65" width="3.28" height="3.28"/>
		<rect x="67.95" y="107.65" width="3.28" height="3.28"/>
		<rect x="74.51" y="107.65" width="3.28" height="3.28"/>
		<rect x="77.8" y="107.65" width="3.28" height="3.28"/>
		<rect x="84.36" y="107.65" width="3.28" height="3.28"/>
		<rect x="87.65" y="107.65" width="3.28" height="3.28"/>
		<rect x="94.21" y="107.65" width="3.28" height="3.28"/>
		<rect x="97.5" y="107.65" width="3.28" height="3.28"/>
		<rect x="100.78" y="107.65" width="3.28" height="3.28"/>
		<rect x="104.06" y="107.65" width="3.28" height="3.28"/>
		<rect x="107.35" y="107.65" width="3.28" height="3.28"/>
		<rect x="110.63" y="107.65" width="3.28" height="3.28"/>
		<rect x="113.92" y="107.65" width="3.28" height="3.28"/>
		<rect x="117.2" y="107.65" width="3.28" height="3.28"/>
		<rect x="123.77" y="107.65" width="3.28" height="3.28"/>
		<rect x="127.05" y="107.65" width="3.28" height="3.28"/>
		<rect x="48.25" y="110.94" width="3.28" height="3.28"/>
		<rect x="54.81" y="110.94" width="3.28" height="3.28"/>
		<rect x="58.1" y="110.94" width="3.28" height="3.28"/>
		<rect x="71.23" y="110.94" width="3.28" height="3.28"/>
		<rect x="84.36" y="110.94" width="3.28" height="3.28"/>
		<rect x="97.5" y="110.94" width="3.28" height="3.28"/>
		<rect x="100.78" y="110.94" width="3.28" height="3.28"/>
		<rect x="110.63" y="110.94" width="3.28" height="3.28"/>
		<rect x="117.2" y="110.94" width="3.28" height="3.28"/>
		<rect x="120.48" y="110.94" width="3.28" height="3.28"/>
		<rect x="127.05" y="110.94" width="3.28" height="3.28"/>
		<rect x="48.25" y="114.22" width="3.28" height="3.28"/>
		<rect x="58.1" y="114.22" width="3.28" height="3.28"/>
		<rect x="64.66" y="114.22" width="3.28" height="3.28"/>
		<rect x="67.95" y="114.22" width="3.28" height="3.28"/>
		<rect x="74.51" y="114.22" width="3.28" height="3.28"/>
		<rect x="84.36" y="114.22" width="3.28" height="3.28"/>
		<rect x="97.5" y="114.22" width="3.28" height="3.28"/>
		<rect x="100.78" y="114.22" width="3.28" height="3.28"/>
		<rect x="104.06" y="114.22" width="3.28" height="3.28"/>
		<rect x="107.35" y="114.22" width="3.28" height="3.28"/>
		<rect x="110.63" y="114.22" width="3.28" height="3.28"/>
		<rect x="113.92" y="114.22" width="3.28" height="3.28"/>
		<rect x="120.48" y="114.22" width="3.28" height="3.28"/>
		<rect x="74.51" y="117.5" width="3.28" height="3.28"/>
		<rect x="81.08" y="117.5" width="3.28" height="3.28"/>
		<rect x="87.65" y="117.5" width="3.28" height="3.28"/>
		<rect x="90.93" y="117.5" width="3.28" height="3.28"/>
		<rect x="97.5" y="117.5" width="3.28" height="3.28"/>
		<rect x="100.78" y="117.5" width="3.28" height="3.28"/>
		<rect x="113.92" y="117.5" width="3.28" height="3.28"/>
		<rect x="48.25" y="120.79" width="3.28" height="3.28"/>
		<rect x="51.53" y="120.79" width="3.28" height="3.28"/>
		<rect x="54.81" y="120.79" width="3.28" height="3.28"/>
		<rect x="58.1" y="120.79" width="3.28" height="3.28"/>
		<rect x="61.38" y="120.79" width="3.28" height="3.28"/>
		<rect x="64.66" y="120.79" width="3.28" height="3.28"/>
		<rect x="67.95" y="120.79" width="3.28" height="3.28"/>
		<rect x="74.51" y="120.79" width="3.28" height="3.28"/>
		<rect x="84.36" y="120.79" width="3.28" height="3.28"/>
		<rect x="100.78" y="120.79" width="3.28" height="3.28"/>
		<rect x="107.35" y="120.79" width="3.28" height="3.28"/>
		<rect x="113.92" y="120.79" width="3.28" height="3.28"/>
		<rect x="127.05" y="120.79" width="3.28" height="3.28"/>
		<rect x="48.25" y="124.07" width="3.28" height="3.28"/>
		<rect x="67.95" y="124.07" width="3.28" height="3.28"/>
		<rect x="74.51" y="124.07" width="3.28" height="3.28"/>
		<rect x="81.08" y="124.07" width="3.28" height="3.28"/>
		<rect x="87.65" y="124.07" width="3.28" height="3.28"/>
		<rect x="90.93" y="124.07" width="3.28" height="3.28"/>
		<rect x="97.5" y="124.07" width="3.28" height="3.28"/>
		<rect x="100.78" y="124.07" width="3.28" height="3.28"/>
		<rect x="113.92" y="124.07" width="3.28" height="3.28"/>
		<rect x="123.77" y="124.07" width="3.28" height="3.28"/>
		<rect x="127.05" y="124.07" width="3.28" height="3.28"/>
		<rect x="48.25" y="127.35" width="3.28" height="3.28"/>
		<rect x="54.81" y="127.35" width="3.28" height="3.28"/>
		<rect x="58.1" y="127.35" width="3.28" height="3.28"/>
		<rect x="61.38" y="127.35" width="3.28" height="3.28"/>
		<rect x="67.95" y="127.35" width="3.28" height="3.28"/>
		<rect x="77.8" y="127.35" width="3.28" height="3.28"/>
		<rect x="81.08" y="127.35" width="3.28" height="3.28"/>
		<rect x="87.65" y="127.35" width="3.28" height="3.28"/>
		<rect x="94.21" y="127.35" width="3.28" height="3.28"/>
		<rect x="97.5" y="127.35" width="3.28" height="3.28"/>
		<rect x="100.78" y="127.35" width="3.28" height="3.28"/>
		<rect x="104.06" y="127.35" width="3.28" height="3.28"/>
		<rect x="107.35" y="127.35" width="3.28" height="3.28"/>
		<rect x="110.63" y="127.35" width="3.28" height="3.28"/>
		<rect x="113.92" y="127.35" width="3.28" height="3.28"/>
		<rect x="120.48" y="127.35" width="3.28" height="3.28"/>
		<rect x="123.77" y="127.35" width="3.28" height="3.28"/>
		<rect x="127.05" y="127.35" width="3.28" height="3.28"/>
		<rect x="48.25" y="130.64" width="3.28" height="3.28"/>
		<rect x="54.81" y="130.64" width="3.28" height="3.28"/>
		<rect x="58.1" y="130.64" width="3.28" height="3.28"/>
		<rect x="61.38" y="130.64" width="3.28" height="3.28"/>
		<rect x="67.95" y="130.64" width="3.28" height="3.28"/>
		<rect x="81.08" y="130.64" width="3.28" height="3.28"/>
		<rect x="94.21" y="130.64" width="3.28" height="3.28"/>
		<rect x="104.06" y="130.64" width="3.28" height="3.28"/>
		<rect x="107.35" y="130.64" width="3.28" height="3.28"/>
		<rect x="123.77" y="130.64" width="3.28" height="3.28"/>
		<rect x="127.05" y="130.64" width="3.28" height="3.28"/>
		<rect x="48.25" y="133.92" width="3.28" height="3.28"/>
		<rect x="54.81" y="133.92" width="3.28" height="3.28"/>
		<rect x="58.1" y="133.92" width="3.28" height="3.28"/>
		<rect x="61.38" y="133.92" width="3.28" height="3.28"/>
		<rect x="67.95" y="133.92" width="3.28" height="3.28"/>
		<rect x="77.8" y="133.92" width="3.28" height="3.28"/>
		<rect x="81.08" y="133.92" width="3.28" height="3.28"/>
		<rect x="84.36" y="133.92" width="3.28" height="3.28"/>
		<rect x="87.65" y="133.92" width="3.28" height="3.28"/>
		<rect x="97.5" y="133.92" width="3.28" height="3.28"/>
		<rect x="117.2" y="133.92" width="3.28" height="3.28"/>
		<rect x="120.48" y="133.92" width="3.28" height="3.28"/>
		<rect x="127.05" y="133.92" width="3.28" height="3.28"/>
		<rect x="48.25" y="137.2" width="3.28" height="3.28"/>
		<rect x="67.95" y="137.2" width="3.28" height="3.28"/>
		<rect x="74.51" y="137.2" width="3.28" height="3.28"/>
		<rect x="77.8" y="137.2" width="3.28" height="3.28"/>
		<rect x="84.36" y="137.2" width="3.28" height="3.28"/>
		<rect x="94.21" y="137.2" width="3.28" height="3.28"/>
		<rect x="97.5" y="137.2" width="3.28" height="3.28"/>
		<rect x="100.78" y="137.2" width="3.28" height="3.28"/>
		<rect x="104.06" y="137.2" width="3.28" height="3.28"/>
		<rect x="107.35" y="137.2" width="3.28" height="3.28"/>
		<rect x="110.63" y="137.2" width="3.28" height="3.28"/>
		<rect x="113.92" y="137.2" width="3.28" height="3.28"/>
		<rect x="127.05" y="137.2" width="3.28" height="3.28"/>
		<rect x="48.25" y="140.49" width="3.28" height="3.28"/>
		<rect x="51.53" y="140.49" width="3.28" height="3.28"/>
		<rect x="54.81" y="140.49" width="3.28" height="3.28"/>
		<rect x="58.1" y="140.49" width="3.28" height="3.28"/>
		<rect x="61.38" y="140.49" width="3.28" height="3.28"/>
		<rect x="64.66" y="140.49" width="3.28" height="3.28"/>
		<rect x="67.95" y="140.49" width="3.28" height="3.28"/>
		<rect x="74.51" y="140.49" width="3.28" height="3.28"/>
		<rect x="90.93" y="140.49" width="3.28" height="3.28"/>
		<rect x="94.21" y="140.49" width="3.28" height="3.28"/>
		<rect x="100.78" y="140.49" width="3.28" height="3.28"/>
		<rect x="107.35" y="140.49" width="3.28" height="3.28"/>
		<rect x="117.2" y="140.49" width="3.28" height="3.28"/>
		<rect x="127.05" y="140.49" width="3.28" height="3.28"/>
	</g>
	<path class="st0" d="M130.49,59.63H48.09c-2.27,0-4.11-1.84-4.11-4.11V44.93c0-2.27,1.84-4.11,4.11-4.11h82.41
		c2.27,0,4.11,1.84,4.11,4.11v10.58C134.6,57.78,132.76,59.63,130.49,59.63z M48.09,42.38c-1.41,0-2.55,1.14-2.55,2.55v10.58
		c0,1.41,1.14,2.55,2.55,2.55h82.41c1.41,0,2.55-1.14,2.55-2.55V44.93c0-1.41-1.14-2.55-2.55-2.55H48.09z"/>
	<path class="st0" d="M130.68,43.13h-1.56c0-22.08-17.87-40.04-39.83-40.04c-21.96,0-39.83,17.96-39.83,40.04H47.9
		c0-22.94,18.57-41.6,41.39-41.6S130.68,20.19,130.68,43.13z"/>
	<g class="st1">
		<g>
			<polygon class="st0" points="42.57,56.45 61.78,56.45 61.78,51.21 37.33,51.21 37.33,75.66 42.57,75.66 			"/>
			<path d="M61.78,51.21v5.24H42.57v19.21h-5.24V51.21H61.78 M63.08,49.91h-1.3H37.33h-1.3v1.3v24.45v1.3h1.3h5.24h1.3v-1.3V57.75
				h17.91h1.3v-1.3v-5.24V49.91L63.08,49.91z"/>
		</g>
		<g>
			<polygon class="st0" points="136.88,56.45 136.88,75.66 142.12,75.66 142.12,51.21 117.67,51.21 117.67,56.45 			"/>
			<path d="M142.12,51.21v24.45h-5.24V56.45h-19.21v-5.24H142.12 M143.42,49.91h-1.3h-24.45h-1.3v1.3v5.24v1.3h1.3h17.91v17.91v1.3
				h1.3h5.24h1.3v-1.3V51.21V49.91L143.42,49.91z"/>
		</g>
		<g>
			<polygon class="st0" points="136.88,150.76 117.67,150.76 117.67,156 142.12,156 142.12,131.55 136.88,131.55 			"/>
			<path d="M142.12,131.55V156h-24.45v-5.24h19.21v-19.21H142.12 M143.42,130.25h-1.3h-5.24h-1.3v1.3v17.91h-17.91h-1.3v1.3V156v1.3
				h1.3h24.45h1.3V156v-24.45V130.25L143.42,130.25z"/>
		</g>
		<g>
			<polygon class="st0" points="42.57,150.76 42.57,131.55 37.33,131.55 37.33,156 61.78,156 61.78,150.76 			"/>
			<path d="M42.57,131.55v19.21h19.21V156H37.33v-24.45H42.57 M43.87,130.25h-1.3h-5.24h-1.3v1.3V156v1.3h1.3h24.45h1.3V156v-5.24
				v-1.3h-1.3H43.87v-17.91V130.25L43.87,130.25z"/>
		</g>
	</g>
</g>
</svg>
