<?xml version="1.0" encoding="utf-8"?>
<!-- Generator: Adobe Illustrator 22.0.1, SVG Export Plug-In . SVG Version: 6.00 Build 0)  -->
<svg version="1.1" xmlns="http://www.w3.org/2000/svg" xmlns:xlink="http://www.w3.org/1999/xlink" x="0px" y="0px"
	 viewBox="0 0 297.6 280.6" style="enable-background:new 0 0 297.6 280.6;" xml:space="preserve">
<style type="text/css">
	.st0{fill:#FFFFFF;}
	.st1{font-family:'JNR_Font';}
	.st2{font-size:8px;}
	.st3{font-size:9.2288px;}
	.st4{fill:#040000;}
	.st5{opacity:0.9;}
	.st6{fill:none;stroke:#000000;stroke-width:0.6;stroke-miterlimit:10;}
	.st7{fill:none;stroke:#000000;stroke-width:0.6;stroke-miterlimit:10;stroke-dasharray:1.0078,1.0078;}
	.st8{display:none;}
</style>
<g id="レイヤー_1">
	<rect id="bg" x="0" y="0" width="297.6" height="280.6"/>
	<g id="bg_1_">
		<path class="st0" d="M291.6,6v268.6H6V6H291.6 M297.6,0H0v280.6h297.6V0L297.6,0z"/>
	</g>
	<g id="めくり">
		<polyline id="めくり背景" class="st0" points="0,84.3 0,0 84.3,0 		"/>
		<text transform="matrix(0.7071 -0.7071 0.7071 0.7071 10.0594 45.1518)" class="st1 st2">排除はコチラ</text>
		<g>
			<polyline points="14.8,54.1 14.8,58.9 10,58.9 			"/>
			<polyline points="58.1,10 58.1,14.8 53.3,14.8 			"/>
		</g>
	</g>
	<g id="diverseman">
		<text transform="matrix(1 0 0 1 119.0838 218.7441)" class="st0 st1 st3">@diverseman_y</text>
		<path class="st0" d="M207.5,237.3H96l23.8-90.9h64l0.2,0.6L207.5,237.3z M98.2,235.6h107.2l-22.9-87.5h-61.4L98.2,235.6z"/>
		<polygon class="st0" points="204.4,195.5 191.7,181.5 192.9,180.3 204.4,193 212.4,184.4 181.2,148.6 182.5,147.5 214.6,184.4 		
			"/>
		<g>
			<circle class="st4" cx="213.3" cy="193.7" r="5.8"/>
			<path class="st0" d="M213.3,200.4c-3.7,0-6.7-3-6.7-6.7c0-3.7,3-6.7,6.7-6.7c3.7,0,6.7,3,6.7,6.7
				C219.9,197.4,216.9,200.4,213.3,200.4z M213.3,188.7c-2.8,0-5,2.2-5,5c0,2.8,2.2,5,5,5c2.8,0,5-2.2,5-5
				C218.3,191,216,188.7,213.3,188.7z"/>
		</g>
		<polygon class="st0" points="99.9,195.8 89.6,184.8 121.8,147.8 123,148.9 91.9,184.7 99.9,193.4 111.3,180.7 112.6,181.8 		"/>
		<g>
			<circle class="st4" cx="91" cy="194.1" r="5.8"/>
			<path class="st0" d="M91,200.7c-3.7,0-6.7-3-6.7-6.7c0-3.7,3-6.7,6.7-6.7s6.7,3,6.7,6.7C97.7,197.8,94.7,200.7,91,200.7z
				 M91,189.1c-2.8,0-5,2.2-5,5c0,2.8,2.2,5,5,5s5-2.2,5-5C96,191.3,93.7,189.1,91,189.1z"/>
		</g>
		<g>
			<path class="st0" d="M183.8,82.6c0,0,12,12.8,14,13.8c0,0-6,0.6-9.3-1.3l12.5,19.7c0,0-7.7-6.3-8.7-6.6c0,0,2.8,8.8,3.2,11.7
				c0,0-5.3-4.7-7-4.7c0,0,8.5,16.1,9.5,20.1c0,0-8.5-9.1-10.8-10.7c0,0,6.5,12,6.8,15.6c0,0-3.5-4.6-6.2-6.2c0,0,3.8,11.8,3.8,16.4
				c0,0-3.8-6.4-6.2-9.9l1.2,9.9c0,0-2.3-5.2-3.8-7c0,0-2.5,14.6-3.5,16.9c0,0-2-4-3.7-6.3c0,0-6,20.5-7.3,22.5
				c0,0-0.2-12.3-1.5-14.6c0,0-5.3,19.3-7.3,22c0,0-1-14.4-1.7-15.4c0,0-3.3,26.5-4.7,29.2c0,0-4.7-20.5-5-25.4c0,0-5,12.8-5,14.1
				c0,0-4.7-20.6-5-23.5c0,0-2.3,13.6-2.7,17.6c0,0-7.3-16.6-6.3-23.9c0,0-3.3,7.4-3.7,10.7c0,0-5.7-21.5-5.3-23.9
				c0,0-1.3,10.4-3,14.4c0,0-0.3-14.9,0.7-19.1c0,0-1.3,5.3-5.7,9.7c0,0,2.8-17.5,4.5-24.4c0,0-5.2,6.2-7.5,9.7c0,0,2.5-11,6.2-17.6
				c0,0-6.3,1.7-8.7,6.3c0,0,2.3-9.9,6.3-13.6c0,0-5.3-0.3-8.3,3c0,0,8.3-9.9,10.3-14.9c0,0-5.7,0.3-8.7,3c0,0,13.3-13.2,14-16.9"/>
			<path class="st0" d="M152.8,200.2l-0.5-2.3c-0.2-0.7-3.4-14.9-4.6-22.3c-1.8,4.7-3.7,10-3.8,10.8v7.4l-1.6-7.3
				c-0.1-0.6-2.7-12.1-4.1-18.9c-0.7,4.3-1.7,10.4-1.9,12.9l-0.3,3.3l-1.3-3c-0.3-0.6-5.3-12.2-6.3-20.2c-0.9,2.3-1.9,5.1-2.1,6.8
				l-0.5,4.6l-1.2-4.5c-0.7-2.5-3.2-12.2-4.5-18.6c-0.6,3.2-1.3,7.1-2.2,9.3l-1.5,3.7l-0.1-4c0-0.4-0.2-7.9,0.1-13.8
				c-0.9,1.6-2.1,3.3-3.7,4.9l-1.8,1.9l0.4-2.6c0-0.2,2.1-13.1,3.8-21.1c-1.7,2.1-3.9,5-5.2,6.9l-2.5,3.7l1-4.3
				c0.1-0.4,2.1-9.3,5.3-15.9c-1.9,0.8-4.9,2.5-6.2,5.2l-3.2,6.3l1.6-6.8c0.1-0.4,1.9-8.1,5.2-12.4c-1.7,0.2-4.1,0.8-5.8,2.6
				l-1.3-1.1c0.1-0.1,6.9-8.3,9.6-13.3c-1.8,0.3-4.9,1-6.7,2.6l-1.1-1.2c5.1-5,13.3-14,13.8-16.4l1.6,0.3
				c-0.5,2.7-6.6,9.4-10.7,13.7c2.3-0.7,4.4-0.8,4.5-0.8l1.3-0.1l-0.5,1.2c-1.3,3.1-4.9,8-7.5,11.4c2.4-0.8,4.6-0.6,4.8-0.6l2,0.1
				l-1.5,1.3c-2.2,2-3.9,6.1-4.9,9.2c2.8-2.4,6.3-3.3,6.5-3.4l1.9-0.5l-0.9,1.7c-2.2,3.9-3.9,9.4-5,13.2c2.3-3,4.8-6,5-6.2l2.3-2.8
				l-0.8,3.5c-1.2,5.1-3.1,16.1-4,21.4c2.6-3.6,3.5-7.1,3.5-7.1l1.6,0.4c-0.6,2.4-0.7,8.3-0.7,12.8c0.8-4,1.4-8.1,1.4-8.4
				c0,0,0,0,0,0l1.7,0.2c0,0,0,0,0,0c-0.2,1.5,2.4,12.1,4.5,20.3c1.1-3.4,2.8-7.3,2.9-7.6l2.4-5.2l-0.8,5.7
				c-0.7,5.2,3,15.4,5.1,20.5c0.7-5.4,2.2-14,2.3-14.5l1-5.8l0.7,5.8c0.2,2.2,3,14.4,4.3,20.3c1.2-3.6,3.3-9,4.1-11.1l1.4-3.5
				l0.3,3.7c0.2,3.6,2.9,15.9,4.2,21.9c1.1-5.7,2.7-17.5,3.8-25.7l0.3-2.2l1.2,1.8c0.6,0.8,1.2,7.3,1.6,12.7
				c1.9-4.9,4.8-14.8,5.9-19l0.5-1.9l1,1.7c0.9,1.6,1.3,7.1,1.5,11c1.6-4.7,4.1-12.8,5.8-18.7l0.5-1.6l1,1.4c1,1.3,2,3.2,2.8,4.6
				c0.9-3.8,2.3-11.6,2.9-14.9l0.3-1.8l1.2,1.4c0.5,0.7,1.2,1.7,1.8,2.8l-1-8.5l1.9,2.8c1.2,1.8,2.9,4.5,4.2,6.6
				c-1-5.2-3.3-12.4-3.3-12.5l-0.7-2.1l1.9,1.1c1.2,0.7,2.6,2,3.8,3.3c-1.6-3.9-4.3-9.2-5.6-11.6l-1.6-3l2.8,1.9
				c1.5,1,5.4,4.9,8.1,7.7c-2.7-6.1-7.9-16-8-16.1l-0.6-1.2h1.4c1.3,0,3.9,1.9,5.7,3.4c-0.9-3.7-2.7-9.2-2.7-9.3l-0.5-1.6l1.6,0.5
				c0.6,0.2,2.8,1.9,5,3.6l-11.6-18.2l2.9,1.6c1.9,1.1,4.7,1.3,6.7,1.2c-3.8-3.4-11.3-11.4-12.4-12.5l1.2-1.1
				c4.6,4.9,12.4,13,13.8,13.6l2.6,1.3l-2.9,0.3c-0.2,0-4,0.4-7.4-0.4l13.9,21.9l-4-3.3c-2.4-1.9-4.9-4-6.6-5.2
				c0.9,2.8,2.3,7.5,2.5,9.6l0.2,2.1l-1.6-1.4c-1.5-1.3-3.3-2.7-4.6-3.6c2.4,4.6,7.7,14.9,8.5,18.1l0.8,3.1l-2.2-2.4
				c-1.8-2-4.9-5.2-7.4-7.6c2,3.9,4.6,9.5,4.8,11.9l0.3,2.9l-1.8-2.3c0,0-1.9-2.5-3.9-4.4c1.1,3.8,3.1,10.7,3.1,14.1v3l-1.5-2.6
				c0,0-2.2-3.6-4.2-6.8l1.4,11.7l-2.2-5c0,0-1.4-3-2.6-5.2c-0.7,4.1-2.4,13.2-3.2,15.1l-0.7,1.6l-0.8-1.6c0,0-1.3-2.6-2.6-4.7
				c-1.5,5.2-5.8,19.2-6.9,21l-1.5,2.2l0-2.7c0-3.3-0.3-8.2-0.7-11.4c-1.6,5.7-5,17.1-6.6,19.2l-1.3,1.8l-0.2-2.2
				c-0.2-3.2-0.5-6.6-0.8-9.4c-1.1,8.1-3,21.5-4,23.5L152.8,200.2z"/>
		</g>
		<path class="st0" d="M181.3,84.6h-59.5c-2.9,0-5.3-2.4-5.3-5.3v-4.6c0-2.9,2.4-5.3,5.3-5.3h59.5c2.9,0,5.3,2.4,5.3,5.3v4.6
			C186.6,82.2,184.2,84.6,181.3,84.6z M121.9,71.4c-1.8,0-3.3,1.5-3.3,3.3v4.6c0,1.8,1.5,3.3,3.3,3.3h59.5c1.8,0,3.3-1.5,3.3-3.3
			v-4.6c0-1.8-1.5-3.3-3.3-3.3H121.9z"/>
		<path class="st0" d="M183.6,71.5h-2c0-16.6-13.5-30.2-30-30.2s-30,13.5-30,30.2h-2c0-17.7,14.4-32.2,32-32.2
			S183.6,53.8,183.6,71.5z"/>
		<g class="st5">
			<g>
				<polygon class="st0" points="115.9,80.7 130.6,80.7 130.6,76.7 111.9,76.7 111.9,95.4 115.9,95.4 				"/>
				<path class="st4" d="M130.6,76.7v4h-14.7v14.7h-4V76.7H130.6 M132.2,75.1h-1.7h-18.7h-1.7v1.7v18.7v1.7h1.7h4h1.7v-1.7v-13h13
					h1.7v-1.7v-4V75.1L132.2,75.1z"/>
			</g>
			<g>
				<polygon class="st0" points="187.9,80.7 187.9,95.4 191.9,95.4 191.9,76.7 173.3,76.7 173.3,80.7 				"/>
				<path class="st4" d="M191.9,76.7v18.7h-4V80.7h-14.7v-4H191.9 M193.6,75.1h-1.7h-18.7h-1.7v1.7v4v1.7h1.7h13v13v1.7h1.7h4h1.7
					v-1.7V76.7V75.1L193.6,75.1z"/>
			</g>
			<g>
				<polygon class="st0" points="187.9,152.7 173.3,152.7 173.3,156.7 191.9,156.7 191.9,138.1 187.9,138.1 				"/>
				<path class="st4" d="M191.9,138.1v18.7h-18.7v-4h14.7v-14.7H191.9 M193.6,136.4h-1.7h-4h-1.7v1.7v13h-13h-1.7v1.7v4v1.7h1.7
					h18.7h1.7v-1.7v-18.7V136.4L193.6,136.4z"/>
			</g>
			<g>
				<polygon class="st0" points="115.9,152.7 115.9,138.1 111.9,138.1 111.9,156.7 130.6,156.7 130.6,152.7 				"/>
				<path class="st4" d="M115.9,138.1v14.7h14.7v4h-18.7v-18.7H115.9 M117.6,136.4h-1.7h-4h-1.7v1.7v18.7v1.7h1.7h18.7h1.7v-1.7v-4
					v-1.7h-1.7h-13v-13V136.4L117.6,136.4z"/>
			</g>
		</g>
		<rect id="qr-bg" x="119.2" y="83.7" shape-rendering="optimizeSpeed" class="st0" width="65.4" height="65.4"/>
		<g id="qr_1_">
			<rect x="123.2" y="87.6" shape-rendering="optimizeSpeed" width="2.3" height="2.3"/>
			<rect x="125.4" y="87.6" shape-rendering="optimizeSpeed" width="2.3" height="2.3"/>
			<rect x="127.7" y="87.6" shape-rendering="optimizeSpeed" width="2.3" height="2.3"/>
			<rect x="130" y="87.6" shape-rendering="optimizeSpeed" width="2.3" height="2.3"/>
			<rect x="132.3" y="87.6" shape-rendering="optimizeSpeed" width="2.3" height="2.3"/>
			<rect x="134.6" y="87.6" shape-rendering="optimizeSpeed" width="2.3" height="2.3"/>
			<rect x="136.9" y="87.6" shape-rendering="optimizeSpeed" width="2.3" height="2.3"/>
			<rect x="141.5" y="87.6" shape-rendering="optimizeSpeed" width="2.3" height="2.3"/>
			<rect x="148.3" y="87.6" shape-rendering="optimizeSpeed" width="2.3" height="2.3"/>
			<rect x="150.6" y="87.6" shape-rendering="optimizeSpeed" width="2.3" height="2.3"/>
			<rect x="155.2" y="87.6" shape-rendering="optimizeSpeed" width="2.3" height="2.3"/>
			<rect x="164.3" y="87.6" shape-rendering="optimizeSpeed" width="2.3" height="2.3"/>
			<rect x="166.6" y="87.6" shape-rendering="optimizeSpeed" width="2.3" height="2.3"/>
			<rect x="168.9" y="87.6" shape-rendering="optimizeSpeed" width="2.3" height="2.3"/>
			<rect x="171.2" y="87.6" shape-rendering="optimizeSpeed" width="2.3" height="2.3"/>
			<rect x="173.5" y="87.6" shape-rendering="optimizeSpeed" width="2.3" height="2.3"/>
			<rect x="175.8" y="87.6" shape-rendering="optimizeSpeed" width="2.3" height="2.3"/>
			<rect x="178.1" y="87.6" shape-rendering="optimizeSpeed" width="2.3" height="2.3"/>
			<rect x="123.2" y="89.9" shape-rendering="optimizeSpeed" width="2.3" height="2.3"/>
			<rect x="136.9" y="89.9" shape-rendering="optimizeSpeed" width="2.3" height="2.3"/>
			<rect x="143.7" y="89.9" shape-rendering="optimizeSpeed" width="2.3" height="2.3"/>
			<rect x="146" y="89.9" shape-rendering="optimizeSpeed" width="2.3" height="2.3"/>
			<rect x="159.8" y="89.9" shape-rendering="optimizeSpeed" width="2.3" height="2.3"/>
			<rect x="164.3" y="89.9" shape-rendering="optimizeSpeed" width="2.3" height="2.3"/>
			<rect x="178.1" y="89.9" shape-rendering="optimizeSpeed" width="2.3" height="2.3"/>
			<rect x="123.2" y="92.2" shape-rendering="optimizeSpeed" width="2.3" height="2.3"/>
			<rect x="127.7" y="92.2" shape-rendering="optimizeSpeed" width="2.3" height="2.3"/>
			<rect x="130" y="92.2" shape-rendering="optimizeSpeed" width="2.3" height="2.3"/>
			<rect x="132.3" y="92.2" shape-rendering="optimizeSpeed" width="2.3" height="2.3"/>
			<rect x="136.9" y="92.2" shape-rendering="optimizeSpeed" width="2.3" height="2.3"/>
			<rect x="146" y="92.2" shape-rendering="optimizeSpeed" width="2.3" height="2.3"/>
			<rect x="150.6" y="92.2" shape-rendering="optimizeSpeed" width="2.3" height="2.3"/>
			<rect x="152.9" y="92.2" shape-rendering="optimizeSpeed" width="2.3" height="2.3"/>
			<rect x="157.5" y="92.2" shape-rendering="optimizeSpeed" width="2.3" height="2.3"/>
			<rect x="159.8" y="92.2" shape-rendering="optimizeSpeed" width="2.3" height="2.3"/>
			<rect x="164.3" y="92.2" shape-rendering="optimizeSpeed" width="2.3" height="2.3"/>
			<rect x="168.9" y="92.2" shape-rendering="optimizeSpeed" width="2.3" height="2.3"/>
			<rect x="171.2" y="92.2" shape-rendering="optimizeSpeed" width="2.3" height="2.3"/>
			<rect x="173.5" y="92.2" shape-rendering="optimizeSpeed" width="2.3" height="2.3"/>
			<rect x="178.1" y="92.2" shape-rendering="optimizeSpeed" width="2.3" height="2.3"/>
			<rect x="123.2" y="94.5" shape-rendering="optimizeSpeed" width="2.3" height="2.3"/>
			<rect x="127.7" y="94.5" shape-rendering="optimizeSpeed" width="2.3" height="2.3"/>
			<rect x="130" y="94.5" shape-rendering="optimizeSpeed" width="2.3" height="2.3"/>
			<rect x="132.3" y="94.5" shape-rendering="optimizeSpeed" width="2.3" height="2.3"/>
			<rect x="136.9" y="94.5" shape-rendering="optimizeSpeed" width="2.3" height="2.3"/>
			<rect x="150.6" y="94.5" shape-rendering="optimizeSpeed" width="2.3" height="2.3"/>
			<rect x="152.9" y="94.5" shape-rendering="optimizeSpeed" width="2.3" height="2.3"/>
			<rect x="155.2" y="94.5" shape-rendering="optimizeSpeed" width="2.3" height="2.3"/>
			<rect x="159.8" y="94.5" shape-rendering="optimizeSpeed" width="2.3" height="2.3"/>
			<rect x="164.3" y="94.5" shape-rendering="optimizeSpeed" width="2.3" height="2.3"/>
			<rect x="168.9" y="94.5" shape-rendering="optimizeSpeed" width="2.3" height="2.3"/>
			<rect x="171.2" y="94.5" shape-rendering="optimizeSpeed" width="2.3" height="2.3"/>
			<rect x="173.5" y="94.5" shape-rendering="optimizeSpeed" width="2.3" height="2.3"/>
			<rect x="178.1" y="94.5" shape-rendering="optimizeSpeed" width="2.3" height="2.3"/>
			<rect x="123.2" y="96.8" shape-rendering="optimizeSpeed" width="2.3" height="2.3"/>
			<rect x="127.7" y="96.8" shape-rendering="optimizeSpeed" width="2.3" height="2.3"/>
			<rect x="130" y="96.8" shape-rendering="optimizeSpeed" width="2.3" height="2.3"/>
			<rect x="132.3" y="96.8" shape-rendering="optimizeSpeed" width="2.3" height="2.3"/>
			<rect x="136.9" y="96.8" shape-rendering="optimizeSpeed" width="2.3" height="2.3"/>
			<rect x="143.7" y="96.8" shape-rendering="optimizeSpeed" width="2.3" height="2.3"/>
			<rect x="148.3" y="96.8" shape-rendering="optimizeSpeed" width="2.3" height="2.3"/>
			<rect x="152.9" y="96.8" shape-rendering="optimizeSpeed" width="2.3" height="2.3"/>
			<rect x="155.2" y="96.8" shape-rendering="optimizeSpeed" width="2.3" height="2.3"/>
			<rect x="159.8" y="96.8" shape-rendering="optimizeSpeed" width="2.3" height="2.3"/>
			<rect x="164.3" y="96.8" shape-rendering="optimizeSpeed" width="2.3" height="2.3"/>
			<rect x="168.9" y="96.8" shape-rendering="optimizeSpeed" width="2.3" height="2.3"/>
			<rect x="171.2" y="96.8" shape-rendering="optimizeSpeed" width="2.3" height="2.3"/>
			<rect x="173.5" y="96.8" shape-rendering="optimizeSpeed" width="2.3" height="2.3"/>
			<rect x="178.1" y="96.8" shape-rendering="optimizeSpeed" width="2.3" height="2.3"/>
			<rect x="123.2" y="99.1" shape-rendering="optimizeSpeed" width="2.3" height="2.3"/>
			<rect x="136.9" y="99.1" shape-rendering="optimizeSpeed" width="2.3" height="2.3"/>
			<rect x="146" y="99.1" shape-rendering="optimizeSpeed" width="2.3" height="2.3"/>
			<rect x="150.6" y="99.1" shape-rendering="optimizeSpeed" width="2.3" height="2.3"/>
			<rect x="152.9" y="99.1" shape-rendering="optimizeSpeed" width="2.3" height="2.3"/>
			<rect x="155.2" y="99.1" shape-rendering="optimizeSpeed" width="2.3" height="2.3"/>
			<rect x="164.3" y="99.1" shape-rendering="optimizeSpeed" width="2.3" height="2.3"/>
			<rect x="178.1" y="99.1" shape-rendering="optimizeSpeed" width="2.3" height="2.3"/>
			<rect x="123.2" y="101.4" shape-rendering="optimizeSpeed" width="2.3" height="2.3"/>
			<rect x="125.4" y="101.4" shape-rendering="optimizeSpeed" width="2.3" height="2.3"/>
			<rect x="127.7" y="101.4" shape-rendering="optimizeSpeed" width="2.3" height="2.3"/>
			<rect x="130" y="101.4" shape-rendering="optimizeSpeed" width="2.3" height="2.3"/>
			<rect x="132.3" y="101.4" shape-rendering="optimizeSpeed" width="2.3" height="2.3"/>
			<rect x="134.6" y="101.4" shape-rendering="optimizeSpeed" width="2.3" height="2.3"/>
			<rect x="136.9" y="101.4" shape-rendering="optimizeSpeed" width="2.3" height="2.3"/>
			<rect x="141.5" y="101.4" shape-rendering="optimizeSpeed" width="2.3" height="2.3"/>
			<rect x="146" y="101.4" shape-rendering="optimizeSpeed" width="2.3" height="2.3"/>
			<rect x="150.6" y="101.4" shape-rendering="optimizeSpeed" width="2.3" height="2.3"/>
			<rect x="155.2" y="101.4" shape-rendering="optimizeSpeed" width="2.3" height="2.3"/>
			<rect x="159.8" y="101.4" shape-rendering="optimizeSpeed" width="2.3" height="2.3"/>
			<rect x="164.3" y="101.4" shape-rendering="optimizeSpeed" width="2.3" height="2.3"/>
			<rect x="166.6" y="101.4" shape-rendering="optimizeSpeed" width="2.3" height="2.3"/>
			<rect x="168.9" y="101.4" shape-rendering="optimizeSpeed" width="2.3" height="2.3"/>
			<rect x="171.2" y="101.4" shape-rendering="optimizeSpeed" width="2.3" height="2.3"/>
			<rect x="173.5" y="101.4" shape-rendering="optimizeSpeed" width="2.3" height="2.3"/>
			<rect x="175.8" y="101.4" shape-rendering="optimizeSpeed" width="2.3" height="2.3"/>
			<rect x="178.1" y="101.4" shape-rendering="optimizeSpeed" width="2.3" height="2.3"/>
			<rect x="141.5" y="103.7" shape-rendering="optimizeSpeed" width="2.3" height="2.3"/>
			<rect x="146" y="103.7" shape-rendering="optimizeSpeed" width="2.3" height="2.3"/>
			<rect x="148.3" y="103.7" shape-rendering="optimizeSpeed" width="2.3" height="2.3"/>
			<rect x="152.9" y="103.7" shape-rendering="optimizeSpeed" width="2.3" height="2.3"/>
			<rect x="155.2" y="103.7" shape-rendering="optimizeSpeed" width="2.3" height="2.3"/>
			<rect x="159.8" y="103.7" shape-rendering="optimizeSpeed" width="2.3" height="2.3"/>
			<rect x="123.2" y="105.9" shape-rendering="optimizeSpeed" width="2.3" height="2.3"/>
			<rect x="125.4" y="105.9" shape-rendering="optimizeSpeed" width="2.3" height="2.3"/>
			<rect x="130" y="105.9" shape-rendering="optimizeSpeed" width="2.3" height="2.3"/>
			<rect x="132.3" y="105.9" shape-rendering="optimizeSpeed" width="2.3" height="2.3"/>
			<rect x="136.9" y="105.9" shape-rendering="optimizeSpeed" width="2.3" height="2.3"/>
			<rect x="143.7" y="105.9" shape-rendering="optimizeSpeed" width="2.3" height="2.3"/>
			<rect x="146" y="105.9" shape-rendering="optimizeSpeed" width="2.3" height="2.3"/>
			<rect x="148.3" y="105.9" shape-rendering="optimizeSpeed" width="2.3" height="2.3"/>
			<rect x="150.6" y="105.9" shape-rendering="optimizeSpeed" width="2.3" height="2.3"/>
			<rect x="155.2" y="105.9" shape-rendering="optimizeSpeed" width="2.3" height="2.3"/>
			<rect x="159.8" y="105.9" shape-rendering="optimizeSpeed" width="2.3" height="2.3"/>
			<rect x="164.3" y="105.9" shape-rendering="optimizeSpeed" width="2.3" height="2.3"/>
			<rect x="178.1" y="105.9" shape-rendering="optimizeSpeed" width="2.3" height="2.3"/>
			<rect x="127.7" y="108.2" shape-rendering="optimizeSpeed" width="2.3" height="2.3"/>
			<rect x="141.5" y="108.2" shape-rendering="optimizeSpeed" width="2.3" height="2.3"/>
			<rect x="143.7" y="108.2" shape-rendering="optimizeSpeed" width="2.3" height="2.3"/>
			<rect x="150.6" y="108.2" shape-rendering="optimizeSpeed" width="2.3" height="2.3"/>
			<rect x="157.5" y="108.2" shape-rendering="optimizeSpeed" width="2.3" height="2.3"/>
			<rect x="166.6" y="108.2" shape-rendering="optimizeSpeed" width="2.3" height="2.3"/>
			<rect x="168.9" y="108.2" shape-rendering="optimizeSpeed" width="2.3" height="2.3"/>
			<rect x="171.2" y="108.2" shape-rendering="optimizeSpeed" width="2.3" height="2.3"/>
			<rect x="173.5" y="108.2" shape-rendering="optimizeSpeed" width="2.3" height="2.3"/>
			<rect x="175.8" y="108.2" shape-rendering="optimizeSpeed" width="2.3" height="2.3"/>
			<rect x="123.2" y="110.5" shape-rendering="optimizeSpeed" width="2.3" height="2.3"/>
			<rect x="125.4" y="110.5" shape-rendering="optimizeSpeed" width="2.3" height="2.3"/>
			<rect x="132.3" y="110.5" shape-rendering="optimizeSpeed" width="2.3" height="2.3"/>
			<rect x="134.6" y="110.5" shape-rendering="optimizeSpeed" width="2.3" height="2.3"/>
			<rect x="136.9" y="110.5" shape-rendering="optimizeSpeed" width="2.3" height="2.3"/>
			<rect x="139.2" y="110.5" shape-rendering="optimizeSpeed" width="2.3" height="2.3"/>
			<rect x="146" y="110.5" shape-rendering="optimizeSpeed" width="2.3" height="2.3"/>
			<rect x="148.3" y="110.5" shape-rendering="optimizeSpeed" width="2.3" height="2.3"/>
			<rect x="152.9" y="110.5" shape-rendering="optimizeSpeed" width="2.3" height="2.3"/>
			<rect x="157.5" y="110.5" shape-rendering="optimizeSpeed" width="2.3" height="2.3"/>
			<rect x="159.8" y="110.5" shape-rendering="optimizeSpeed" width="2.3" height="2.3"/>
			<rect x="162.1" y="110.5" shape-rendering="optimizeSpeed" width="2.3" height="2.3"/>
			<rect x="168.9" y="110.5" shape-rendering="optimizeSpeed" width="2.3" height="2.3"/>
			<rect x="171.2" y="110.5" shape-rendering="optimizeSpeed" width="2.3" height="2.3"/>
			<rect x="178.1" y="110.5" shape-rendering="optimizeSpeed" width="2.3" height="2.3"/>
			<rect x="125.4" y="112.8" shape-rendering="optimizeSpeed" width="2.3" height="2.3"/>
			<rect x="134.6" y="112.8" shape-rendering="optimizeSpeed" width="2.3" height="2.3"/>
			<rect x="139.2" y="112.8" shape-rendering="optimizeSpeed" width="2.3" height="2.3"/>
			<rect x="143.7" y="112.8" shape-rendering="optimizeSpeed" width="2.3" height="2.3"/>
			<rect x="146" y="112.8" shape-rendering="optimizeSpeed" width="2.3" height="2.3"/>
			<rect x="148.3" y="112.8" shape-rendering="optimizeSpeed" width="2.3" height="2.3"/>
			<rect x="150.6" y="112.8" shape-rendering="optimizeSpeed" width="2.3" height="2.3"/>
			<rect x="155.2" y="112.8" shape-rendering="optimizeSpeed" width="2.3" height="2.3"/>
			<rect x="164.3" y="112.8" shape-rendering="optimizeSpeed" width="2.3" height="2.3"/>
			<rect x="166.6" y="112.8" shape-rendering="optimizeSpeed" width="2.3" height="2.3"/>
			<rect x="171.2" y="112.8" shape-rendering="optimizeSpeed" width="2.3" height="2.3"/>
			<rect x="173.5" y="112.8" shape-rendering="optimizeSpeed" width="2.3" height="2.3"/>
			<rect x="175.8" y="112.8" shape-rendering="optimizeSpeed" width="2.3" height="2.3"/>
			<rect x="178.1" y="112.8" shape-rendering="optimizeSpeed" width="2.3" height="2.3"/>
			<rect x="130" y="115.1" shape-rendering="optimizeSpeed" width="2.3" height="2.3"/>
			<rect x="132.3" y="115.1" shape-rendering="optimizeSpeed" width="2.3" height="2.3"/>
			<rect x="134.6" y="115.1" shape-rendering="optimizeSpeed" width="2.3" height="2.3"/>
			<rect x="136.9" y="115.1" shape-rendering="optimizeSpeed" width="2.3" height="2.3"/>
			<rect x="139.2" y="115.1" shape-rendering="optimizeSpeed" width="2.3" height="2.3"/>
			<rect x="143.7" y="115.1" shape-rendering="optimizeSpeed" width="2.3" height="2.3"/>
			<rect x="148.3" y="115.1" shape-rendering="optimizeSpeed" width="2.3" height="2.3"/>
			<rect x="157.5" y="115.1" shape-rendering="optimizeSpeed" width="2.3" height="2.3"/>
			<rect x="159.8" y="115.1" shape-rendering="optimizeSpeed" width="2.3" height="2.3"/>
			<rect x="164.3" y="115.1" shape-rendering="optimizeSpeed" width="2.3" height="2.3"/>
			<rect x="166.6" y="115.1" shape-rendering="optimizeSpeed" width="2.3" height="2.3"/>
			<rect x="178.1" y="115.1" shape-rendering="optimizeSpeed" width="2.3" height="2.3"/>
			<rect x="123.2" y="117.4" shape-rendering="optimizeSpeed" width="2.3" height="2.3"/>
			<rect x="127.7" y="117.4" shape-rendering="optimizeSpeed" width="2.3" height="2.3"/>
			<rect x="130" y="117.4" shape-rendering="optimizeSpeed" width="2.3" height="2.3"/>
			<rect x="134.6" y="117.4" shape-rendering="optimizeSpeed" width="2.3" height="2.3"/>
			<rect x="139.2" y="117.4" shape-rendering="optimizeSpeed" width="2.3" height="2.3"/>
			<rect x="141.5" y="117.4" shape-rendering="optimizeSpeed" width="2.3" height="2.3"/>
			<rect x="143.7" y="117.4" shape-rendering="optimizeSpeed" width="2.3" height="2.3"/>
			<rect x="148.3" y="117.4" shape-rendering="optimizeSpeed" width="2.3" height="2.3"/>
			<rect x="150.6" y="117.4" shape-rendering="optimizeSpeed" width="2.3" height="2.3"/>
			<rect x="155.2" y="117.4" shape-rendering="optimizeSpeed" width="2.3" height="2.3"/>
			<rect x="157.5" y="117.4" shape-rendering="optimizeSpeed" width="2.3" height="2.3"/>
			<rect x="159.8" y="117.4" shape-rendering="optimizeSpeed" width="2.3" height="2.3"/>
			<rect x="162.1" y="117.4" shape-rendering="optimizeSpeed" width="2.3" height="2.3"/>
			<rect x="168.9" y="117.4" shape-rendering="optimizeSpeed" width="2.3" height="2.3"/>
			<rect x="175.8" y="117.4" shape-rendering="optimizeSpeed" width="2.3" height="2.3"/>
			<rect x="123.2" y="119.7" shape-rendering="optimizeSpeed" width="2.3" height="2.3"/>
			<rect x="125.4" y="119.7" shape-rendering="optimizeSpeed" width="2.3" height="2.3"/>
			<rect x="127.7" y="119.7" shape-rendering="optimizeSpeed" width="2.3" height="2.3"/>
			<rect x="130" y="119.7" shape-rendering="optimizeSpeed" width="2.3" height="2.3"/>
			<rect x="132.3" y="119.7" shape-rendering="optimizeSpeed" width="2.3" height="2.3"/>
			<rect x="134.6" y="119.7" shape-rendering="optimizeSpeed" width="2.3" height="2.3"/>
			<rect x="136.9" y="119.7" shape-rendering="optimizeSpeed" width="2.3" height="2.3"/>
			<rect x="139.2" y="119.7" shape-rendering="optimizeSpeed" width="2.3" height="2.3"/>
			<rect x="143.7" y="119.7" shape-rendering="optimizeSpeed" width="2.3" height="2.3"/>
			<rect x="150.6" y="119.7" shape-rendering="optimizeSpeed" width="2.3" height="2.3"/>
			<rect x="152.9" y="119.7" shape-rendering="optimizeSpeed" width="2.3" height="2.3"/>
			<rect x="157.5" y="119.7" shape-rendering="optimizeSpeed" width="2.3" height="2.3"/>
			<rect x="162.1" y="119.7" shape-rendering="optimizeSpeed" width="2.3" height="2.3"/>
			<rect x="164.3" y="119.7" shape-rendering="optimizeSpeed" width="2.3" height="2.3"/>
			<rect x="168.9" y="119.7" shape-rendering="optimizeSpeed" width="2.3" height="2.3"/>
			<rect x="171.2" y="119.7" shape-rendering="optimizeSpeed" width="2.3" height="2.3"/>
			<rect x="173.5" y="119.7" shape-rendering="optimizeSpeed" width="2.3" height="2.3"/>
			<rect x="175.8" y="119.7" shape-rendering="optimizeSpeed" width="2.3" height="2.3"/>
			<rect x="178.1" y="119.7" shape-rendering="optimizeSpeed" width="2.3" height="2.3"/>
			<rect x="123.2" y="122" shape-rendering="optimizeSpeed" width="2.3" height="2.3"/>
			<rect x="132.3" y="122" shape-rendering="optimizeSpeed" width="2.3" height="2.3"/>
			<rect x="139.2" y="122" shape-rendering="optimizeSpeed" width="2.3" height="2.3"/>
			<rect x="146" y="122" shape-rendering="optimizeSpeed" width="2.3" height="2.3"/>
			<rect x="148.3" y="122" shape-rendering="optimizeSpeed" width="2.3" height="2.3"/>
			<rect x="157.5" y="122" shape-rendering="optimizeSpeed" width="2.3" height="2.3"/>
			<rect x="159.8" y="122" shape-rendering="optimizeSpeed" width="2.3" height="2.3"/>
			<rect x="166.6" y="122" shape-rendering="optimizeSpeed" width="2.3" height="2.3"/>
			<rect x="171.2" y="122" shape-rendering="optimizeSpeed" width="2.3" height="2.3"/>
			<rect x="173.5" y="122" shape-rendering="optimizeSpeed" width="2.3" height="2.3"/>
			<rect x="178.1" y="122" shape-rendering="optimizeSpeed" width="2.3" height="2.3"/>
			<rect x="123.2" y="124.2" shape-rendering="optimizeSpeed" width="2.3" height="2.3"/>
			<rect x="127.7" y="124.2" shape-rendering="optimizeSpeed" width="2.3" height="2.3"/>
			<rect x="130" y="124.2" shape-rendering="optimizeSpeed" width="2.3" height="2.3"/>
			<rect x="136.9" y="124.2" shape-rendering="optimizeSpeed" width="2.3" height="2.3"/>
			<rect x="148.3" y="124.2" shape-rendering="optimizeSpeed" width="2.3" height="2.3"/>
			<rect x="152.9" y="124.2" shape-rendering="optimizeSpeed" width="2.3" height="2.3"/>
			<rect x="157.5" y="124.2" shape-rendering="optimizeSpeed" width="2.3" height="2.3"/>
			<rect x="159.8" y="124.2" shape-rendering="optimizeSpeed" width="2.3" height="2.3"/>
			<rect x="162.1" y="124.2" shape-rendering="optimizeSpeed" width="2.3" height="2.3"/>
			<rect x="164.3" y="124.2" shape-rendering="optimizeSpeed" width="2.3" height="2.3"/>
			<rect x="166.6" y="124.2" shape-rendering="optimizeSpeed" width="2.3" height="2.3"/>
			<rect x="168.9" y="124.2" shape-rendering="optimizeSpeed" width="2.3" height="2.3"/>
			<rect x="173.5" y="124.2" shape-rendering="optimizeSpeed" width="2.3" height="2.3"/>
			<rect x="175.8" y="124.2" shape-rendering="optimizeSpeed" width="2.3" height="2.3"/>
			<rect x="141.5" y="126.5" shape-rendering="optimizeSpeed" width="2.3" height="2.3"/>
			<rect x="152.9" y="126.5" shape-rendering="optimizeSpeed" width="2.3" height="2.3"/>
			<rect x="157.5" y="126.5" shape-rendering="optimizeSpeed" width="2.3" height="2.3"/>
			<rect x="159.8" y="126.5" shape-rendering="optimizeSpeed" width="2.3" height="2.3"/>
			<rect x="168.9" y="126.5" shape-rendering="optimizeSpeed" width="2.3" height="2.3"/>
			<rect x="173.5" y="126.5" shape-rendering="optimizeSpeed" width="2.3" height="2.3"/>
			<rect x="175.8" y="126.5" shape-rendering="optimizeSpeed" width="2.3" height="2.3"/>
			<rect x="123.2" y="128.8" shape-rendering="optimizeSpeed" width="2.3" height="2.3"/>
			<rect x="125.4" y="128.8" shape-rendering="optimizeSpeed" width="2.3" height="2.3"/>
			<rect x="127.7" y="128.8" shape-rendering="optimizeSpeed" width="2.3" height="2.3"/>
			<rect x="130" y="128.8" shape-rendering="optimizeSpeed" width="2.3" height="2.3"/>
			<rect x="132.3" y="128.8" shape-rendering="optimizeSpeed" width="2.3" height="2.3"/>
			<rect x="134.6" y="128.8" shape-rendering="optimizeSpeed" width="2.3" height="2.3"/>
			<rect x="136.9" y="128.8" shape-rendering="optimizeSpeed" width="2.3" height="2.3"/>
			<rect x="143.7" y="128.8" shape-rendering="optimizeSpeed" width="2.3" height="2.3"/>
			<rect x="146" y="128.8" shape-rendering="optimizeSpeed" width="2.3" height="2.3"/>
			<rect x="148.3" y="128.8" shape-rendering="optimizeSpeed" width="2.3" height="2.3"/>
			<rect x="155.2" y="128.8" shape-rendering="optimizeSpeed" width="2.3" height="2.3"/>
			<rect x="159.8" y="128.8" shape-rendering="optimizeSpeed" width="2.3" height="2.3"/>
			<rect x="164.3" y="128.8" shape-rendering="optimizeSpeed" width="2.3" height="2.3"/>
			<rect x="168.9" y="128.8" shape-rendering="optimizeSpeed" width="2.3" height="2.3"/>
			<rect x="178.1" y="128.8" shape-rendering="optimizeSpeed" width="2.3" height="2.3"/>
			<rect x="123.2" y="131.1" shape-rendering="optimizeSpeed" width="2.3" height="2.3"/>
			<rect x="136.9" y="131.1" shape-rendering="optimizeSpeed" width="2.3" height="2.3"/>
			<rect x="143.7" y="131.1" shape-rendering="optimizeSpeed" width="2.3" height="2.3"/>
			<rect x="148.3" y="131.1" shape-rendering="optimizeSpeed" width="2.3" height="2.3"/>
			<rect x="150.6" y="131.1" shape-rendering="optimizeSpeed" width="2.3" height="2.3"/>
			<rect x="152.9" y="131.1" shape-rendering="optimizeSpeed" width="2.3" height="2.3"/>
			<rect x="157.5" y="131.1" shape-rendering="optimizeSpeed" width="2.3" height="2.3"/>
			<rect x="159.8" y="131.1" shape-rendering="optimizeSpeed" width="2.3" height="2.3"/>
			<rect x="168.9" y="131.1" shape-rendering="optimizeSpeed" width="2.3" height="2.3"/>
			<rect x="175.8" y="131.1" shape-rendering="optimizeSpeed" width="2.3" height="2.3"/>
			<rect x="123.2" y="133.4" shape-rendering="optimizeSpeed" width="2.3" height="2.3"/>
			<rect x="127.7" y="133.4" shape-rendering="optimizeSpeed" width="2.3" height="2.3"/>
			<rect x="130" y="133.4" shape-rendering="optimizeSpeed" width="2.3" height="2.3"/>
			<rect x="132.3" y="133.4" shape-rendering="optimizeSpeed" width="2.3" height="2.3"/>
			<rect x="136.9" y="133.4" shape-rendering="optimizeSpeed" width="2.3" height="2.3"/>
			<rect x="141.5" y="133.4" shape-rendering="optimizeSpeed" width="2.3" height="2.3"/>
			<rect x="146" y="133.4" shape-rendering="optimizeSpeed" width="2.3" height="2.3"/>
			<rect x="155.2" y="133.4" shape-rendering="optimizeSpeed" width="2.3" height="2.3"/>
			<rect x="157.5" y="133.4" shape-rendering="optimizeSpeed" width="2.3" height="2.3"/>
			<rect x="159.8" y="133.4" shape-rendering="optimizeSpeed" width="2.3" height="2.3"/>
			<rect x="162.1" y="133.4" shape-rendering="optimizeSpeed" width="2.3" height="2.3"/>
			<rect x="164.3" y="133.4" shape-rendering="optimizeSpeed" width="2.3" height="2.3"/>
			<rect x="166.6" y="133.4" shape-rendering="optimizeSpeed" width="2.3" height="2.3"/>
			<rect x="168.9" y="133.4" shape-rendering="optimizeSpeed" width="2.3" height="2.3"/>
			<rect x="123.2" y="135.7" shape-rendering="optimizeSpeed" width="2.3" height="2.3"/>
			<rect x="127.7" y="135.7" shape-rendering="optimizeSpeed" width="2.3" height="2.3"/>
			<rect x="130" y="135.7" shape-rendering="optimizeSpeed" width="2.3" height="2.3"/>
			<rect x="132.3" y="135.7" shape-rendering="optimizeSpeed" width="2.3" height="2.3"/>
			<rect x="136.9" y="135.7" shape-rendering="optimizeSpeed" width="2.3" height="2.3"/>
			<rect x="141.5" y="135.7" shape-rendering="optimizeSpeed" width="2.3" height="2.3"/>
			<rect x="146" y="135.7" shape-rendering="optimizeSpeed" width="2.3" height="2.3"/>
			<rect x="148.3" y="135.7" shape-rendering="optimizeSpeed" width="2.3" height="2.3"/>
			<rect x="152.9" y="135.7" shape-rendering="optimizeSpeed" width="2.3" height="2.3"/>
			<rect x="155.2" y="135.7" shape-rendering="optimizeSpeed" width="2.3" height="2.3"/>
			<rect x="162.1" y="135.7" shape-rendering="optimizeSpeed" width="2.3" height="2.3"/>
			<rect x="164.3" y="135.7" shape-rendering="optimizeSpeed" width="2.3" height="2.3"/>
			<rect x="175.8" y="135.7" shape-rendering="optimizeSpeed" width="2.3" height="2.3"/>
			<rect x="178.1" y="135.7" shape-rendering="optimizeSpeed" width="2.3" height="2.3"/>
			<rect x="123.2" y="138" shape-rendering="optimizeSpeed" width="2.3" height="2.3"/>
			<rect x="127.7" y="138" shape-rendering="optimizeSpeed" width="2.3" height="2.3"/>
			<rect x="130" y="138" shape-rendering="optimizeSpeed" width="2.3" height="2.3"/>
			<rect x="132.3" y="138" shape-rendering="optimizeSpeed" width="2.3" height="2.3"/>
			<rect x="136.9" y="138" shape-rendering="optimizeSpeed" width="2.3" height="2.3"/>
			<rect x="143.7" y="138" shape-rendering="optimizeSpeed" width="2.3" height="2.3"/>
			<rect x="148.3" y="138" shape-rendering="optimizeSpeed" width="2.3" height="2.3"/>
			<rect x="155.2" y="138" shape-rendering="optimizeSpeed" width="2.3" height="2.3"/>
			<rect x="157.5" y="138" shape-rendering="optimizeSpeed" width="2.3" height="2.3"/>
			<rect x="162.1" y="138" shape-rendering="optimizeSpeed" width="2.3" height="2.3"/>
			<rect x="168.9" y="138" shape-rendering="optimizeSpeed" width="2.3" height="2.3"/>
			<rect x="171.2" y="138" shape-rendering="optimizeSpeed" width="2.3" height="2.3"/>
			<rect x="173.5" y="138" shape-rendering="optimizeSpeed" width="2.3" height="2.3"/>
			<rect x="175.8" y="138" shape-rendering="optimizeSpeed" width="2.3" height="2.3"/>
			<rect x="178.1" y="138" shape-rendering="optimizeSpeed" width="2.3" height="2.3"/>
			<rect x="123.2" y="140.3" shape-rendering="optimizeSpeed" width="2.3" height="2.3"/>
			<rect x="136.9" y="140.3" shape-rendering="optimizeSpeed" width="2.3" height="2.3"/>
			<rect x="141.5" y="140.3" shape-rendering="optimizeSpeed" width="2.3" height="2.3"/>
			<rect x="143.7" y="140.3" shape-rendering="optimizeSpeed" width="2.3" height="2.3"/>
			<rect x="146" y="140.3" shape-rendering="optimizeSpeed" width="2.3" height="2.3"/>
			<rect x="155.2" y="140.3" shape-rendering="optimizeSpeed" width="2.3" height="2.3"/>
			<rect x="157.5" y="140.3" shape-rendering="optimizeSpeed" width="2.3" height="2.3"/>
			<rect x="164.3" y="140.3" shape-rendering="optimizeSpeed" width="2.3" height="2.3"/>
			<rect x="166.6" y="140.3" shape-rendering="optimizeSpeed" width="2.3" height="2.3"/>
			<rect x="168.9" y="140.3" shape-rendering="optimizeSpeed" width="2.3" height="2.3"/>
			<rect x="173.5" y="140.3" shape-rendering="optimizeSpeed" width="2.3" height="2.3"/>
			<rect x="175.8" y="140.3" shape-rendering="optimizeSpeed" width="2.3" height="2.3"/>
			<rect x="178.1" y="140.3" shape-rendering="optimizeSpeed" width="2.3" height="2.3"/>
			<rect x="123.2" y="142.6" shape-rendering="optimizeSpeed" width="2.3" height="2.3"/>
			<rect x="125.4" y="142.6" shape-rendering="optimizeSpeed" width="2.3" height="2.3"/>
			<rect x="127.7" y="142.6" shape-rendering="optimizeSpeed" width="2.3" height="2.3"/>
			<rect x="130" y="142.6" shape-rendering="optimizeSpeed" width="2.3" height="2.3"/>
			<rect x="132.3" y="142.6" shape-rendering="optimizeSpeed" width="2.3" height="2.3"/>
			<rect x="134.6" y="142.6" shape-rendering="optimizeSpeed" width="2.3" height="2.3"/>
			<rect x="136.9" y="142.6" shape-rendering="optimizeSpeed" width="2.3" height="2.3"/>
			<rect x="141.5" y="142.6" shape-rendering="optimizeSpeed" width="2.3" height="2.3"/>
			<rect x="143.7" y="142.6" shape-rendering="optimizeSpeed" width="2.3" height="2.3"/>
			<rect x="150.6" y="142.6" shape-rendering="optimizeSpeed" width="2.3" height="2.3"/>
			<rect x="155.2" y="142.6" shape-rendering="optimizeSpeed" width="2.3" height="2.3"/>
			<rect x="159.8" y="142.6" shape-rendering="optimizeSpeed" width="2.3" height="2.3"/>
			<rect x="164.3" y="142.6" shape-rendering="optimizeSpeed" width="2.3" height="2.3"/>
			<rect x="171.2" y="142.6" shape-rendering="optimizeSpeed" width="2.3" height="2.3"/>
			<rect x="178.1" y="142.6" shape-rendering="optimizeSpeed" width="2.3" height="2.3"/>
		</g>
	</g>
	<g>
		<g>
			<line class="st6" x1="0" y1="78.5" x2="0.3" y2="78.1"/>
			<line class="st7" x1="1.1" y1="77.4" x2="77.6" y2="0.7"/>
			<line class="st6" x1="77.9" y1="0.4" x2="78.3" y2="0"/>
		</g>
	</g>
</g>
<g id="ガイド" class="st8">
</g>
</svg>
